<svg
  width="786.66669"
  height="185.33333"
  viewBox="0 0 786.66669 185.33333"
  xmlns="http://www.w3.org/2000/svg"
>
  <path
    d="M 41.946533,175.91348 C 38.400754,170.17629 45.758242,158.6293 77.148574,120.66666 119.69538,69.21169 136.84517,23.558553 118.21359,11.350671 99.329771,-1.0224813 35.366846,27.643289 23.129489,53.963779 18.901705,63.057028 1.2085268,66.699006 0.28228762,58.666665 -1.5315062,42.937454 72.292402,3.5090491 107.0067,1.6665193 140.94807,-0.13498548 146.02486,16.579518 125.37149,62.129548 l -4.0814,9.001327 8.35496,-7.988366 c 31.56643,-30.181396 81.36548,-62.99695641 95.76678,-63.106436 15.83952,-0.12041301 13.87495,9.3124247 -9.43403,45.297259 -33.07349,51.059468 -49.20594,81.333328 -43.34121,81.333328 0.51335,0 15.43013,-14.04612 33.14839,-31.213603 63.66866,-61.689488 88.42946,-79.714815 97.30693,-70.837344 5.25951,5.259511 2.93018,11.923224 -14.16531,40.523836 -13.64884,22.834392 -24.93539,54.621561 -23.01982,64.832451 2.77785,14.80717 38.91802,3.92432 63.84422,-19.22535 25.98414,-24.132199 60.90763,-38.754697 70.24901,-29.413319 3.30624,3.306238 3.31775,4.239113 0.10102,8.185621 l -2.56564,3.147712 -4.71655,-2.515752 c -8.84727,-4.719034 -26.55964,2.391795 -43.30345,17.384658 -12.08081,10.81748 -5.56605,9.42057 32.76067,-7.02465 24.19429,-10.381283 25.58056,-10.787651 28.12395,-8.244256 2.55778,2.55778 1.90704,5.374945 -3.03254,13.128446 -7.21414,11.32381 -5.33498,13.62381 8.27697,10.13062 20.86766,-5.3552 30.54849,-11.72468 35.75621,-23.525733 3.56714,-8.083381 4.10255,-8.656858 8.48759,-9.090973 10.38178,-1.027788 10.53922,5.402755 0.39679,16.206378 -12.56537,13.384518 -12.25235,13.656068 3.7599,3.261848 45.32651,-29.423362 51.91515,-29.789319 39.95741,-2.21939 -6.27136,14.45936 -6.21323,14.78113 1.45827,8.07096 33.16111,-29.005616 48.94381,-33.03814 43.24597,-11.049466 -2.66011,10.265716 -2.60427,16.692406 0.16503,18.990716 6.1854,5.13343 28.42144,-0.97801 31.05602,-8.53554 0.79147,-2.27042 2.27954,-5.067 3.30682,-6.21462 6.20402,-6.930771 34.83803,-60.22997 36.16904,-67.324854 1.73805,-9.264644 10.73266,-16.75892 14.99653,-12.495057 3.99992,3.999919 0.14487,12.218304 -18.95069,40.399999 -7.45345,11 -15.45076,23.113619 -17.77179,26.919155 l -4.22005,6.919154 14.93793,-7.243531 c 22.96636,-11.136584 40.18428,-13.967287 47.5023,-7.809587 5.37755,4.524916 5.56208,10.608683 0.5041,16.619756 -3.24809,3.860135 -3.32801,4.190465 -0.8214,3.394895 4.04508,-1.283858 24.62035,-3.499819 25.7891,-2.777491 0.54726,0.338224 1.76516,-0.313022 2.70646,-1.447213 0.9413,-1.134192 4.45928,-3.639587 7.81774,-5.567543 3.35846,-1.927957 7.6063,-5.181717 9.43963,-7.230577 9.75073,-10.897033 84.66667,-6.570506 84.66667,4.889648 0,4.403783 -6.37726,4.248568 -10.55196,-0.256823 -3.28456,-3.544741 -4.1755,-3.767495 -16.80624,-4.201912 l -13.33782,-0.458735 1.21018,3.183016 c 4.00576,10.535955 -16.41841,25.71005 -45.23823,33.60965 -25.82033,7.07742 -35.16171,3.08394 -27.31345,-11.67661 l 3.29582,-6.19859 -3.62915,0.003 c -7.59469,0.007 -29.60838,7.06102 -45.62915,14.62125 -25.91202,12.22791 -38.09418,14.76154 -37.09352,7.71468 0.33652,-2.36985 4.31471,-5.02745 18.79901,-12.55855 37.99029,-19.753014 48.97489,-29.268343 32.58277,-28.224571 -13.13694,0.836497 -34.09978,11.612832 -46.32582,23.814641 -9.31642,9.29795 -11.03815,10.2629 -14.45242,8.09994 -1.22072,-0.77334 -4.92865,0.63528 -11.21955,4.26226 -20.69245,11.93008 -30.448,8.07391 -31.59863,-12.49026 -0.38817,-6.93736 -1.31377,-12.5697 -2.10872,-12.831618 -2.14478,-0.70666 -15.88215,8.675758 -28.58313,19.521838 -12.998,11.09973 -15.86378,12.72494 -20.42127,11.58109 -5.59054,-1.40314 -5.40794,-4.57158 1.03106,-17.89018 3.33128,-6.89053 6.05688,-13.074752 6.05688,-13.742724 0,-4.761214 -13.91406,2.820692 -32.16738,17.528314 -17.18043,13.84314 -21.21704,16.25248 -26.25448,15.67054 -4.48989,-0.51868 -5.37098,-4.78842 -2.03787,-9.87539 2.65997,-4.05963 2.80105,-4.08827 -8.24058,1.67286 -22.7459,11.86799 -35.58059,8.15178 -30.83219,-8.92728 1.20954,-4.35047 2.19916,-8.28405 2.19916,-8.74129 0,-1.7924 -8.12535,1.36237 -26,10.09483 -27.68613,13.52575 -35.49758,15.63399 -41.73629,11.26422 -2.83472,-1.98551 -3.44776,-1.81359 -11.36695,3.18784 -61.90451,39.09623 -78.787,21.38354 -44.88208,-47.089139 13.33275,-26.926163 18.34259,-41.999999 13.95882,-41.999999 -6.2038,0 -40.60195,26.548832 -61.88742,47.765323 C 209.26709,101.19865 202.7287,108.55606 180.83171,135.27161 169.02495,149.67651 160,150.01454 160,136.05185 c 0,-7.69454 8.19955,-24.60917 31.80179,-65.603094 14.33953,-24.905841 28.74925,-55.145145 27.35383,-57.402986 -3.56947,-5.7755085 -25.84765,5.375138 -50.67033,25.361445 -42.63051,34.324514 -73.629121,69.321275 -97.519329,110.097225 -9.794926,16.71803 -26.105656,32.12362 -29.019428,27.40904 z m 666.720147,-65.566 c 18.94029,-6.30581 33.3886,-15.608413 32.38127,-20.848796 -0.76433,-3.976195 -11.21824,-4.324873 -20.48588,-0.683283 -4.45754,1.751528 -9.91751,3.184596 -12.13328,3.184596 -7.74495,0 -23.36852,15.223903 -21.26069,20.716823 0.99951,2.60469 9.30924,1.68888 21.49858,-2.36934 z"
  />
  <path
    d="m 535.92514,151.45347 q 0.68743,-0.15276 1.50852,-0.22914 0.8211,-0.0955 1.64219,-0.0955 0.87838,0 1.71857,0.17185 0.85928,0.15276 1.52761,0.63014 0.66833,0.47738 1.08843,1.35576 0.42009,0.85929 0.42009,2.25324 0,1.26028 -0.36281,2.13866 -0.34371,0.87838 -0.93566,1.43214 -0.59195,0.55376 -1.37485,0.802 -0.76381,0.24823 -1.58491,0.24823 -0.0764,0 -0.24823,0 -0.17186,0 -0.36281,0 -0.19095,-0.0191 -0.38191,-0.0382 -0.17185,-0.0191 -0.24823,-0.0382 v 4.60195 h -2.406 z m 2.406,6.47328 q 0.11457,0.0382 0.42009,0.0764 0.32462,0.0191 0.43919,0.0191 0.42009,0 0.802,-0.11457 0.3819,-0.11457 0.66833,-0.3819 0.30552,-0.28643 0.47738,-0.76381 0.17186,-0.49648 0.17186,-1.24119 0,-0.63014 -0.17186,-1.06933 -0.15276,-0.43919 -0.43919,-0.68743 -0.26733,-0.26733 -0.63014,-0.3819 -0.36281,-0.11457 -0.76381,-0.11457 -0.59195,0 -0.97385,0.0955 z m 23.4888,-6.47328 q 0.7829,-0.17185 1.68037,-0.24823 0.89748,-0.0764 1.54672,-0.0764 0.82109,0 1.60399,0.17185 0.78291,0.15276 1.37486,0.59195 0.61104,0.4201 0.97385,1.16481 0.38191,0.72562 0.38191,1.85223 0,1.6231 -0.61105,2.65424 -0.59195,1.01204 -1.64219,1.39395 l 0.76381,0.61104 2.46328,5.11752 h -2.7688 l -2.32962,-5.27028 -1.03114,-0.24824 v 5.51852 h -2.40599 z m 2.40599,6.07228 h 0.8211 q 0.89747,0 1.35576,-0.53467 0.45828,-0.55376 0.45828,-1.69947 0,-0.85929 -0.3819,-1.39395 -0.38191,-0.55376 -1.203,-0.55376 -0.30552,0 -0.59195,0.0191 -0.28643,0.0191 -0.45829,0.0764 z m 23.18331,0.47738 q 0,-3.39895 1.16481,-5.1748 1.16481,-1.77586 3.55171,-1.77586 1.24119,0 2.13866,0.49648 0.89748,0.47738 1.47033,1.39395 0.57286,0.89747 0.84019,2.19595 0.28643,1.27938 0.28643,2.86428 0,3.39894 -1.203,5.1748 -1.1839,1.77585 -3.53261,1.77585 -1.26028,0 -2.15776,-0.47738 -0.87838,-0.49648 -1.45123,-1.39395 -0.57286,-0.91657 -0.84019,-2.19595 -0.26734,-1.29847 -0.26734,-2.88337 z m 2.52057,0 q 0,1.01204 0.11457,1.89042 0.11457,0.85929 0.38191,1.48943 0.26733,0.63014 0.66833,0.99295 0.42009,0.36281 1.03114,0.36281 1.10752,0 1.66128,-1.12662 0.55376,-1.12662 0.55376,-3.60899 0,-0.97386 -0.11457,-1.83314 -0.11457,-0.87838 -0.3819,-1.50852 -0.24824,-0.64924 -0.66833,-1.01205 -0.4201,-0.3819 -1.05024,-0.3819 -2.19595,0 -2.19595,4.73561 z m 25.131,-6.68332 q 0.34371,-0.0573 0.7638,-0.0764 0.43919,-0.0382 0.87838,-0.0573 0.45829,-0.0382 0.87838,-0.0382 0.4201,-0.0191 0.74472,-0.0191 1.5849,0 2.63513,0.49647 1.06933,0.47738 1.69948,1.37485 0.64923,0.87838 0.91657,2.11957 0.26733,1.24119 0.26733,2.76881 0,1.39395 -0.26733,2.67332 -0.24824,1.26029 -0.89748,2.23414 -0.64924,0.95476 -1.75676,1.52762 -1.10752,0.57285 -2.7879,0.57285 -0.24823,0 -0.66833,-0.0191 -0.42009,-0.0191 -0.87838,-0.0573 -0.45828,-0.0191 -0.87838,-0.0573 -0.42009,-0.0191 -0.64923,-0.0573 z m 3.51351,2.02409 q -0.30552,0 -0.63014,0.0191 -0.30552,0 -0.47738,0.0382 v 9.20389 q 0.0573,0.0191 0.19095,0.0382 0.15277,0 0.30553,0.0191 0.17185,0 0.30552,0.0191 0.15276,0 0.21005,0 0.85928,0 1.41304,-0.401 0.55376,-0.401 0.85929,-1.06933 0.32461,-0.66833 0.43919,-1.52762 0.13366,-0.87837 0.13366,-1.83313 0,-0.87838 -0.11457,-1.69948 -0.0955,-0.82109 -0.401,-1.43214 -0.28643,-0.63014 -0.84019,-0.99295 -0.53466,-0.3819 -1.39395,-0.3819 z m 29.38923,-2.02409 h 2.27233 v 8.66922 q 0,2.59695 -1.06933,3.76175 -1.05024,1.16481 -2.92157,1.16481 -2.19595,0 -3.22709,-1.12662 -1.01204,-1.14571 -1.01204,-3.47532 v -8.99384 h 2.40599 v 8.57374 q 0,1.56581 0.4201,2.19595 0.42009,0.61105 1.39395,0.61105 0.93566,0 1.33666,-0.64924 0.401,-0.66833 0.401,-2.15776 z m 28.30079,12.83197 q -0.49647,0.4201 -1.33666,0.61105 -0.82109,0.19095 -1.64219,0.19095 -1.03114,0 -1.92861,-0.34371 -0.87838,-0.36281 -1.54671,-1.18391 -0.66834,-0.82109 -1.05024,-2.15775 -0.3819,-1.33667 -0.3819,-3.28438 0,-2.02409 0.42009,-3.36075 0.43919,-1.33667 1.12662,-2.11957 0.70652,-0.802 1.60399,-1.12662 0.89748,-0.32462 1.81405,-0.32462 0.93566,0 1.62309,0.15277 0.70652,0.15276 1.14571,0.34371 l -0.47738,2.11957 q -0.36281,-0.19096 -0.85928,-0.28643 -0.47738,-0.11457 -1.14571,-0.11457 -1.31757,0 -2.0241,1.14571 -0.70652,1.14571 -0.70652,3.5899 0,1.05023 0.15276,1.92861 0.17186,0.85929 0.51557,1.48943 0.36281,0.63014 0.89748,0.97385 0.55376,0.34372 1.31757,0.34372 0.66833,0 1.14571,-0.17186 0.47738,-0.19095 0.85928,-0.43919 z m 25.2456,-10.61693 h -3.16981 v 11.1516 h -2.40599 v -11.1516 h -3.16981 v -2.21504 h 8.74561 z m 18.0085,-2.21504 h 2.406 v 13.36664 h -2.406 z m 20.8155,6.68332 q 0,-3.39895 1.16481,-5.1748 1.16481,-1.77586 3.55171,-1.77586 1.24118,0 2.13866,0.49648 0.89747,0.47738 1.47033,1.39395 0.57286,0.89747 0.84019,2.19595 0.28643,1.27938 0.28643,2.86428 0,3.39894 -1.203,5.1748 -1.1839,1.77585 -3.53261,1.77585 -1.26029,0 -2.15776,-0.47738 -0.87838,-0.49648 -1.45124,-1.39395 -0.57285,-0.91657 -0.84018,-2.19595 -0.26734,-1.29847 -0.26734,-2.88337 z m 2.52057,0 q 0,1.01204 0.11457,1.89042 0.11457,0.85929 0.3819,1.48943 0.26734,0.63014 0.66834,0.99295 0.42009,0.36281 1.03114,0.36281 1.10752,0 1.66128,-1.12662 0.55376,-1.12662 0.55376,-3.60899 0,-0.97386 -0.11457,-1.83314 -0.11457,-0.87838 -0.38191,-1.50852 -0.24823,-0.64924 -0.66833,-1.01205 -0.42009,-0.3819 -1.05023,-0.3819 -2.19595,0 -2.19595,4.73561 z m 28.07166,0.11457 -0.87838,-2.34871 h -0.0955 l 0.30552,2.31052 v 6.60694 h -2.27233 v -13.46212 h 1.85224 l 3.83813,6.72151 0.8211,2.31052 h 0.11457 l -0.30552,-2.27233 v -6.66422 h 2.27232 v 13.46211 h -1.85223 z m 28.83547,3.13161 q 0,-0.61105 -0.36281,-1.03114 -0.36281,-0.43919 -0.91657,-0.82109 -0.53467,-0.38191 -1.1839,-0.78291 -0.63014,-0.401 -1.18391,-0.93566 -0.53466,-0.53467 -0.89747,-1.26028 -0.36281,-0.72562 -0.36281,-1.77586 0,-0.97385 0.28643,-1.64219 0.30552,-0.68742 0.82109,-1.10752 0.51557,-0.43919 1.2221,-0.63014 0.70652,-0.21005 1.50852,-0.21005 0.97385,0 1.81404,0.19096 0.84019,0.19095 1.39395,0.51557 l -0.74471,2.11956 q -0.32462,-0.22914 -0.97386,-0.42009 -0.63014,-0.19095 -1.37485,-0.19095 -0.74472,0 -1.14571,0.30552 -0.401,0.30552 -0.401,0.89748 0,0.53466 0.36281,0.95476 0.3628,0.40099 0.89747,0.7829 0.55376,0.3819 1.1839,0.802 0.64924,0.401 1.1839,0.95476 0.55376,0.53466 0.91657,1.27938 0.36281,0.72561 0.36281,1.73766 0,1.01204 -0.30552,1.75676 -0.28643,0.74471 -0.84019,1.24118 -0.53466,0.47738 -1.29847,0.72562 -0.76381,0.24824 -1.69948,0.24824 -1.1839,0 -2.08137,-0.22914 -0.87838,-0.22914 -1.35576,-0.51557 l 0.7829,-2.15776 q 0.38191,0.22914 1.05024,0.45828 0.66833,0.22915 1.43214,0.22915 1.90952,0 1.90952,-1.48943 z"
    transform="scale(0.89508662,1.1172103)"
  />
</svg>
