<svg
  width="400"
  height="400"
  viewBox="0 0 400 400"
  xmlns="http://www.w3.org/2000/svg"
>
  <path
    d="M 172.42657,397.78067 C -22.819395,367.42696 -63.315065,103.11568 114.54613,20.000686 297.83835,-65.652234 476.85877,145.33668 363.3033,313.17956 322.83893,372.98871 242.37016,408.65438 172.42657,397.78067 Z m 64.58474,-13.22334 c 65.94799,-14.10097 111.47287,-52.50373 138.79944,-117.08502 4.04534,-9.5604 3.30437,-9.62932 -10.26196,-0.95452 -23.98796,15.33877 -48.6194,25.67821 -57.29527,24.0506 -19.64642,-3.68568 -17.98621,-25.07741 5.85091,-75.38883 8.61841,-18.19031 18.98881,-43.94272 18.98881,-47.15417 0,-16.79253 -73.98948,45.84502 -114.7616,97.15417 -17.03326,21.43528 -23.3595,26.47962 -29.25311,23.32546 -9.95481,-5.32765 -0.0678,-30.66994 34.96285,-89.61614 12.57408,-21.15846 25.94899,-48.77915 28.42311,-58.6969 1.9016,-7.62275 -11.72014,-5.02776 -30.19769,5.75278 -22.22301,12.96578 -83.55928,67.82567 -99.76925,89.2348 -11.42278,15.0865 -28.042985,39.31337 -37.567815,54.7617 -4.67674,7.58521 -12.85935,18.39002 -18.18358,24.01067 l -9.6804,10.21938 12.55198,11.99977 c 45.525815,43.52297 107.014085,61.29657 167.393575,48.38625 z M 54.607065,307.51289 c 4.2039,-7.36481 22.98573,-31.32199 50.813145,-64.81474 34.89971,-42.00489 50.78227,-98.64443 30.39828,-108.40472 -22.36493,-10.7088 -89.419165,18.399 -103.707555,45.01876 -5.73945,10.69279 -8.32323,13.1497 -15.0177,14.28027 l -5.999999,1.01329 0.417949,12.62024 c 1.15386,34.84058 11.70497,67.71196 31.33432,97.62023 8.0658,12.28946 6.4747,11.92871 11.76156,2.66667 z m 277.244175,-30.453 c 16.9397,-4.95808 45.56135,-22.80689 49.83995,-31.0808 12.3274,-23.83855 6.23739,-87.8944 -12.04261,-126.66643 -76.36631,-161.973604 -319.110195,-132.791134 -354.656375,42.6365 -2.89777,14.30106 -3.20282,14.26339 14.10103,1.74156 35.76041,-25.87781 87.384825,-44.21695 110.700425,-39.32541 24.19116,5.07523 25.97788,22.4115 6.85171,66.48091 -2.94398,6.78334 -4.79756,12.33334 -4.11907,12.33334 0.67848,0 1.2336,-0.52812 1.2336,-1.1736 0,-0.64548 6.15,-6.53895 13.66667,-13.0966 64.66612,-56.41569 113,-80.73471 113,-56.85555 0,7.55838 -3.24531,13.91115 -22.09373,43.24907 -31.28371,48.69369 -47.46651,77.28967 -49.31489,87.14239 -1.35735,7.23532 -1.98729,7.73692 37.63866,-29.97062 84.0265,-79.95856 102.7909,-93.22378 112.80837,-79.74826 3.98766,5.3642 2.40998,10.08462 -11.09479,33.19559 -30.31197,51.87344 -41.03201,89.48649 -26.3098,92.31229 6.45974,1.2399 12.83474,0.86161 19.79085,-1.17438 z"
  />
</svg>
