<svg
   width="1080"
   height="1268"
   viewBox="0 0 1080 1268"
   xmlns="http://www.w3.org/2000/svg">
   <path
      d="m 564.5,1198.9377 c -9.12506,-1.2047 -14.49233,-3.2765 -18.01572,-6.9541 -2.44176,-2.5487 -2.93771,-4.0324 -3.42009,-10.2323 L 542.5,1174.5 l -4.26276,0.3372 c -3.73433,0.2955 -4.68396,-0.084 -7.66041,-3.0604 -4.30358,-4.3035 -5.2278,-8.0857 -6.02166,-24.6422 -0.35247,-7.3509 -1.35318,-17.0259 -2.22381,-21.5 -2.15546,-11.0766 -2.09727,-23.8079 0.13774,-30.1346 0.97148,-2.75 4.16842,-10.625 7.10432,-17.5 6.75303,-15.8136 7.99829,-20.6965 10.45602,-41 1.09853,-9.075 2.75079,-20.479 3.67169,-25.3421 2.07217,-10.9429 1.28173,-16.53639 -5.14308,-36.39472 -8.65813,-26.76122 -9.91186,-40.19995 -9.66655,-103.61581 0.19639,-50.77035 -0.0664,-53.02451 -7.74676,-66.44636 -2.10898,-3.68555 -6.07874,-10.57175 -8.82168,-15.30265 -2.74295,-4.7309 -5.7747,-10.5809 -6.73722,-13 -0.96252,-2.4191 -2.3251,-5.74836 -3.02794,-7.39836 -0.70285,-1.65 -2.99462,-7.5 -5.09282,-13 -2.0982,-5.5 -5.278,-13.15 -7.06621,-17 -1.78822,-3.85 -4.22184,-9.47388 -5.40805,-12.4975 -1.18621,-3.02363 -2.50737,-5.94863 -2.9359,-6.5 -0.42853,-0.55138 -1.05687,-2.1275 -1.3963,-3.5025 -0.33944,-1.375 -1.53586,-3.9888 -2.65873,-5.80844 l -2.04157,-3.30844 -6.64046,5.51186 c -7.08816,5.88346 -11.83154,7.61043 -18.70062,6.8085 -5.56178,-0.64931 -10.96186,-6.30309 -12.61934,-13.21221 -1.67957,-7.00127 -0.61637,-22.31761 2.49837,-35.99127 1.3155,-5.775 4.70718,-21.92858 7.53707,-35.89685 l 5.14526,-25.39686 0.17589,-47.60314 0.17589,-47.60315 2.7182,-7.37633 c 4.2257,-11.46717 10.51389,-23.34855 20.65984,-39.03624 15.95861,-24.67524 18.79792,-31.9331 17.82351,-45.56044 -0.43077,-6.02431 -7.04106,-31.31926 -10.69864,-40.93944 -0.60736,-1.59748 -2.20435,-7.56014 -3.54887,-13.25037 -3.57693,-15.13818 -17.94607,-46.42052 -24.42806,-53.18112 -6.89301,-7.18926 -9.91193,-8.47252 -21.07151,-8.95685 -8.36932,-0.36323 -11.31968,0.0241 -24.5,3.21631 -8.24167,1.99611 -19.48485,4.92519 -24.98485,6.50908 -22.0219,6.34187 -23.07289,6.45178 -54.92203,5.74331 -25.13587,-0.55913 -53.1147,-2.64552 -55.53484,-4.14125 -0.41706,-0.25776 -8.58488,-1.84692 -18.15071,-3.53146 C 216.61237,306.90189 170.89572,292.96959 148.5,280.96225 132.107,272.17324 110.40034,261.48092 97.698309,255.93823 85.493517,250.61252 79.904985,245.85224 75.965609,237.42644 74.334524,233.93777 73,230.48654 73,229.75704 c 0,-0.7295 -0.95181,-4.01076 -2.115134,-7.2917 -1.788698,-5.04469 -2.032212,-7.43151 -1.577838,-15.46534 0.887708,-15.69568 5.291832,-24 12.728189,-24 3.314793,0 3.83472,-0.38517 5.497523,-4.07261 C 89.59231,174.36009 92.363152,172 95.665802,172 99.089666,172 101,175.66098 101,182.22251 c 0,6.34829 0.42701,6.6626 6.63346,4.88261 3.65025,-1.04688 10.63789,1.55368 11.7147,4.3598 1.56321,4.07365 0.65336,11.06857 -1.93522,14.87801 -2.26457,3.33262 -2.41148,4.01598 -1.17854,5.48213 0.77468,0.92122 4.91343,5.85987 9.19722,10.97478 8.62316,10.29618 14.99177,15.42654 24.20387,19.4979 6.68301,2.95361 25.456,7.07752 37.36451,8.20796 8.30404,0.78827 18.84998,2.57349 29.5,4.99376 15.06466,3.42351 43.30744,7.30913 66,9.08022 3.3,0.25756 7.95592,0.67984 10.3465,0.9384 4.91971,0.53211 16.43104,-0.96473 23.1535,-3.01069 8.16246,-2.48422 37.45092,-11.6754 40,-12.55262 37.57012,-12.92917 52.72534,-18.65364 68,-25.68514 35.94065,-16.54482 47.47053,-19.60055 74,-19.61199 15.50356,-0.007 18.17383,0.24058 23.40655,2.16741 8.27653,3.04764 11.35671,2.80592 17.73027,-1.3914 C 546.79262,200.3919 551,193.51732 551,186.04998 c 0,-1.3602 -3.20665,-7.4084 -7.16097,-13.5066 C 523.4851,141.15429 524.9054,145.46649 526.53294,120 c 1.13205,-17.71344 1.58512,-20.599423 4.94521,-31.5 6.92434,-22.463537 13.25035,-30.482782 30.70244,-38.920377 4.46758,-2.15995 7.99092,-2.939896 16.5,-3.65253 5.95068,-0.498369 11.81175,-1.139356 13.0246,-1.424415 3.00577,-0.706451 19.96178,1.973067 24.36193,3.849857 8.07156,3.442754 20.88308,14.906972 24.60642,22.018737 0.82678,1.579199 3.15097,8.554199 5.16485,15.5 3.60894,12.447054 3.66091,12.880478 3.61303,30.128728 -0.0483,17.40192 -0.0695,17.56554 -3.78809,29.19402 -3.92958,12.28838 -4.78511,13.75454 -18.30586,31.37179 -4.4784,5.83524 -8.4159,11.97634 -8.75,13.64686 -0.9376,4.68797 -0.70982,13.87863 0.44722,18.04499 1.25353,4.51378 8.45873,15.29885 11.94531,17.88027 2.47121,1.82966 2.63419,1.80601 14.15414,-2.05394 18.41407,-6.16995 25.47225,-7.44081 37.74864,-6.79687 5.82847,0.30572 13.04024,1.30753 16.02614,2.22624 2.98591,0.91872 6.13591,1.82107 7,2.00524 0.8641,0.18417 4.72108,1.42357 8.57108,2.75423 3.85,1.33065 16.225,5.45177 27.5,9.15804 11.275,3.70627 22.3,7.43387 24.5,8.28355 12.22089,4.71996 64.5715,21.41563 69.82283,22.26792 8.87208,1.43994 16.51411,1.25058 22.74567,-0.5636 6.37557,-1.85611 33.79784,-15.88775 62.84147,-32.15519 11.32452,-6.3429 27.79003,-15.53596 36.59003,-20.42902 8.8,-4.89306 17.02673,-10.12004 18.28162,-11.6155 C 980.41808,194.88544 989,179.45729 989,177.25345 c 0,-1.10506 -0.675,-3.6247 -1.5,-5.59921 -2.13458,-5.10877 -1.93881,-10.94715 0.43924,-13.09925 2.41609,-2.18654 7.46342,-2.24924 12.47566,-0.15499 2.1061,0.88 4.3543,1.6 4.9959,1.6 0.6417,0 2.6687,-2.47844 4.5046,-5.50765 6.3699,-10.51021 13.5497,-14.17532 19.0477,-9.72331 3.0353,2.45786 3.6519,11.11826 1.6539,23.23096 l -1.5671,9.5 3.5027,5.11333 c 3.9436,5.75701 7.4857,14.94052 7.3713,19.11169 -0.1224,4.46711 -2.2337,9.14531 -5.7503,12.74193 -3.0581,3.12766 -6.3461,4.76532 -21.6736,10.79508 -8.6313,3.3955 -23.40645,15.09836 -43.73388,34.63997 -27.91055,26.83156 -34.68339,31.64419 -58.47923,41.55399 -7.03279,2.9288 -15.03689,6.30676 -17.78689,7.50657 -14.38556,6.27631 -45.04456,13.09829 -71.5,15.90956 -15.97404,1.69747 -35.1513,2.22828 -41.5,1.14868 -5.53057,-0.94048 -29.56898,-4.00491 -47.5,-6.05533 -4.125,-0.4717 -11.80007,-0.8819 -17.05572,-0.91155 -8.69538,-0.0491 -9.86582,0.17396 -13,2.4771 -3.92722,2.88591 -4.65761,5.14861 -4.83186,14.96898 -0.14709,8.28968 -2.48813,24.16453 -4.49777,30.5 -2.50174,7.88683 -8.57949,23.18041 -13.31306,33.5 -7.11464,15.51051 -6.90722,24.40651 1.18911,51 5.33202,17.51376 5.48724,18.22059 7.52821,34.28172 1.57206,12.37115 2.99469,18.57068 7.4694,32.55014 4.82578,15.07625 9.71867,33.91188 12.64241,48.66814 6.3026,31.8095 9.04475,85.70773 5.46921,107.5 -4.13265,25.1878 -13.26129,51.52144 -30.90659,89.15703 -9.29885,19.8335 -18.74414,37.49377 -25.04117,46.82056 -2.21969,3.28767 -5.9198,10.48767 -8.22247,16 -2.30266,5.51233 -6.52862,15.58495 -9.391,22.38361 l -5.20433,12.36119 -0.89551,18.13881 c -0.86308,17.48177 -1.41114,21.07558 -7.37459,48.35752 -3.83421,17.541 -6.34807,82.91758 -4.62504,120.28128 1.82556,39.5874 3.43509,51.9203 7.59914,58.2282 3.13084,4.7427 7.09685,16.6185 7.97815,23.8897 l 0.68091,5.6178 5.92636,0.6195 c 6.48509,0.6778 10.40517,2.3701 16.11281,6.9558 11.04768,8.8762 10.20099,27.2373 -1.53829,33.3589 -1.81069,0.9442 -6.48913,1.8631 -10.78329,2.1179 -8.72884,0.5179 -16.27798,-1.2658 -24.8426,-5.87 -2.98517,-1.6048 -5.79767,-2.9178 -6.25,-2.9178 -0.45233,0 -0.82242,1.5581 -0.82242,3.4625 0,1.9044 -0.92521,5.9353 -2.05602,8.9577 -2.39311,6.3961 -9.45625,13.4136 -15.57486,15.4741 -4.89327,1.6479 -24.67446,2.2572 -33.86912,1.0434 z M 552.79738,1158.25 c 1.5544,-3.1625 3.42357,-8.1949 4.15372,-11.183 l 1.32755,-5.4331 -2.88933,-2.312 c -3.34696,-2.6782 -6.90865,-3.0169 -7.78233,-0.7401 -1.28426,3.3467 0.0403,25.4182 1.52535,25.4182 0.46138,0 2.11065,-2.5875 3.66504,-5.75 z m 40.06677,-91.685 c 10.4498,-2.2409 9.63375,2.1437 9.65048,-51.8513 0.017,-54.91804 1.45086,-75.2246 7.0408,-99.7137 1.82039,-7.975 3.85791,-20.17191 4.52782,-27.10425 1.19048,-12.31922 1.15805,-12.85063 -1.43417,-23.5 -1.63973,-6.73629 -2.99958,-16.08819 -3.56216,-24.49742 -0.98058,-14.65744 -0.68051,-17.42864 4.37447,-40.39833 4.30208,-19.54854 4.49789,-22.28398 4.50981,-63 0.0119,-40.71622 -0.40486,-49.0687 -2.48834,-49.8682 -0.68851,-0.26421 -3.81395,0.86894 -6.94543,2.51812 -15.38757,8.10375 -25.78719,9.99348 -39.53743,7.18439 -4.125,-0.84272 -8.51597,-1.49244 -9.75771,-1.44382 -1.24175,0.0486 -7.42436,2.13185 -13.73915,4.62941 -13.28284,5.25351 -22.67827,6.51178 -34.0718,4.56303 -3.81224,-0.65204 -8.16884,-1.39387 -9.68134,-1.64849 -2.15989,-0.36362 -2.75,-0.0735 -2.75,1.35191 0,0.99818 3.65315,10.3421 8.11811,20.76426 4.46497,10.42217 10.07325,23.98863 12.46286,30.14771 4.84421,12.48568 11.27056,25.74074 15.41816,31.80168 4.10887,6.00435 9.4838,17.13166 12.07598,25 2.25603,6.84798 2.32101,8.19448 2.99218,62 0.84576,67.80158 1.32561,72.58599 9.90232,98.73235 5.60971,17.10137 6.08977,19.32107 7.51922,34.76765 1.76108,19.0301 1.54927,17.7119 6.10607,38 5.53456,24.6413 4.87967,23.0057 9.19524,22.9649 2.04042,-0.019 6.57373,-0.6493 10.07401,-1.3999 z M 641.19341,801.5 c 2.15179,-5.5 8.81108,-19.9 14.79843,-32 19.79651,-40.00729 29.34856,-64.64019 35.67538,-92 3.01695,-13.04654 2.63683,-53.04214 -0.78409,-82.5 -1.3678,-11.77826 -5.89593,-36.31529 -6.89618,-37.36898 -0.94421,-0.99465 -4.30457,5.19437 -7.23264,13.32088 -1.67303,4.64328 -2.13184,9.46219 -2.81329,29.5481 -0.67945,20.02716 -2.8679,41.95464 -4.44133,44.50051 -0.21221,0.34336 -1.77289,7.12121 -3.46818,15.06189 -4.50378,21.09555 -4.97687,22.93982 -7.22502,28.16579 -1.12507,2.6153 -3.79309,6.33386 -5.92892,8.26345 C 649.69849,699.36375 648.20966,700 644.66795,700 h -4.32628 l -1.09133,38.75 c -1.14853,40.781 -0.9532,38.98835 -7.21864,66.25 -2.73678,11.90805 -3.38625,16.64274 -2.56671,18.7117 0.87603,2.21158 5.88318,-7.27114 11.72842,-22.2117 z M 592.5,241.4906 c 5.94589,-1.33823 29.02005,-8.68632 29.88966,-9.51853 0.51043,-0.48847 -0.3014,-2.2625 -1.90447,-4.16173 -3.88027,-4.59711 -8.26599,-14.21088 -9.61867,-21.08469 -0.62497,-3.1759 -1.51604,-6.00904 -1.98014,-6.29587 -0.46411,-0.28683 -3.81675,1.27154 -7.45032,3.46304 -12.99571,7.83808 -27.29745,6.17912 -37.8693,-4.39273 C 561.64171,197.57504 559.64443,196 559.12836,196 c -0.51608,0 -2.06593,1.9125 -3.44412,4.25 -2.86846,4.86507 -6.53439,8.44544 -11.9808,11.70117 -2.0881,1.24822 -3.63063,2.78235 -3.42784,3.40916 0.20279,0.62682 2.06075,1.94814 4.12879,2.93626 3.29744,1.57554 11.25866,6.84873 31.59561,20.92764 5.71734,3.95801 7.74585,4.23664 16.5,2.26637 z m -0.80665,-41.6436 c 6.08445,-1.53208 12.88294,-8.10421 28.6992,-27.74364 12.41347,-15.4141 17.33075,-23.12402 16.05976,-25.18053 -0.48826,-0.79002 -0.98233,-0.79281 -1.76518,-0.01 -1.81782,1.81782 -4.41899,1.21882 -5.04979,-1.16287 -0.41891,-1.58167 0.35327,-3.57616 2.59964,-6.71463 3.96725,-5.54279 4.7277,-13.17808 2.33378,-23.43234 -3.85562,-16.515346 -14.69016,-28.908882 -32.76294,-37.477227 -4.19743,-1.990012 -8.02841,-4.733855 -10.27661,-7.360376 l -3.58443,-4.187597 -2.52729,2.725568 c -1.39001,1.499062 -5.32918,3.996008 -8.75373,5.54877 -3.42454,1.552761 -7.80694,4.210906 -9.73867,5.906988 -1.93173,1.696083 -7.09308,5.27566 -11.46967,7.954617 -10.52737,6.443923 -12.03027,9.152613 -13.45379,24.247757 -0.58977,6.25396 -0.76753,15.79605 -0.39501,21.20465 0.7173,10.4147 0.0623,11.93239 -2.94955,6.83382 C 536.60141,137.51666 534,137.02993 534,140.12827 c 0,2.36915 5.18087,11.94702 7.50635,13.877 0.82151,0.68179 1.49365,1.6515 1.49365,2.15491 0,1.43113 15.30862,24.60441 21.08422,31.91604 9.12075,11.54642 16.31659,14.61427 27.60913,11.77078 z m -6.85071,-15.82169 c -7.41551,-2.24023 -11.60799,-7.19327 -8.87554,-10.48567 2.49101,-3.00148 9.70856,-4.83158 16.9979,-4.31003 8.3995,0.60098 12.035,2.6063 12.035,6.63846 0,3.51659 -2.15116,5.47113 -8.28495,7.52765 -5.18267,1.73763 -7.75336,1.87395 -11.87241,0.62959 z m 1.89037,-24.33071 c -4.65353,-1.83759 -2.47134,-3.1814 5.59814,-3.44736 8.71323,-0.28718 10.4744,1.39019 3.6846,3.50928 -4.59415,1.43383 -5.5104,1.42771 -9.28274,-0.0619 z M 561.5,133.57644 c -3.53788,-1.58647 -11.5,-8.30608 -11.5,-9.70539 0,-0.53521 1.68603,-1.67757 3.74674,-2.53859 4.69582,-1.96204 13.91998,-1.29524 18.41735,1.33137 3.86519,2.25739 4.78528,4.33617 1.91924,4.33617 -1.18518,0 -2.08333,0.64667 -2.08333,1.5 0,0.825 0.675,1.5 1.5,1.5 2.42308,0 1.71982,2.57882 -1.04705,3.83948 -3.30998,1.50813 -7.21217,1.41442 -10.95295,-0.26304 z m 4.25047,-3.82644 c -0.22891,-0.6875 -1.26459,-1.4144 -2.3015,-1.61534 -1.6311,-0.31608 -1.70455,-0.14754 -0.54469,1.25 1.5862,1.91126 3.44015,2.14923 2.84619,0.36534 z M 609.75,133.91173 C 607.87908,132.83076 607.33634,130 609,130 c 2.33287,0 0.7476,-2.10048 -2,-2.65 -3.71312,-0.74262 -3.76238,-1.6041 -0.25,-4.37176 2.35711,-1.85733 3.75851,-2.11633 9.80891,-1.8128 7.67003,0.38478 12.81228,2.70368 11.80668,5.32423 -0.54259,1.41396 -10.62121,6.77045 -14.86559,7.90062 -1.1,0.2929 -2.7875,0.0776 -3.75,-0.47856 z m 6.31574,-3.94691 c 2.63735,-1.41147 2.44366,-3.1766 -0.30552,-2.78437 -1.23189,0.17575 -2.38988,1.10705 -2.57333,2.06955 -0.38444,2.01707 0.18252,2.15785 2.87885,0.71482 z m -17.7721,-8.1174 c 0.34222,-2.55144 1.52423,-5.11984 3.06555,-6.66116 2.28875,-2.28874 3.4458,-2.55025 13.20363,-2.98423 8.82155,-0.39234 10.61454,-0.23273 10.23542,0.91115 -0.31322,0.94507 -2.98218,1.60066 -8.37893,2.05814 -10.55687,0.8949 -12.92463,1.93871 -15.39875,6.78839 -1.13367,2.22216 -2.33631,4.04029 -2.67255,4.04029 -0.33624,0 -0.36071,-1.86866 -0.0544,-4.15258 z m -32.12837,-9.3422 c -4.05244,-0.80373 -7.65526,-0.94952 -10,-0.40466 -4.88512,1.13519 -6.16527,1.10372 -6.16527,-0.15159 0,-0.57806 1.60716,-1.72254 3.57146,-2.54328 2.90679,-1.21453 4.90744,-1.30058 10.75,-0.46238 9.30014,1.33424 12.95414,2.38349 13.44671,3.86121 0.49495,1.48485 -3.07093,1.39286 -11.6029,-0.2993 z"
   />
</svg>
