<?xml version="1.0" encoding="UTF-8" standalone="no"?>
<svg
   width="400"
   height="400"
   viewBox="0 0 400 400"
   version="1.1"
   id="svg1"
   xmlns="http://www.w3.org/2000/svg"
   xmlns:svg="http://www.w3.org/2000/svg">
  <defs
     id="defs1" />
  <circle
     style="fill:#ffffff"
     id="path3"
     cx="200"
     cy="200"
     r="189.04654" />
  <path
     d="M 177.33504,362.57281 C 16.845729,337.6225 -16.441117,120.36251 129.75817,52.043202 280.42169,-18.36224 427.57385,155.06756 334.23291,293.03194 c -33.26112,49.16224 -99.40527,78.4789 -156.89787,69.54087 z m 53.08771,-10.86939 c 54.20828,-11.59079 91.62907,-43.1573 114.0911,-96.24217 3.32521,-7.85851 2.71615,-7.91516 -8.43518,-0.7846 -19.71775,12.60824 -39.96443,21.10711 -47.09586,19.76923 -16.14908,-3.02957 -14.78441,-20.61325 4.80935,-61.9685 7.08421,-14.95217 15.60852,-36.12028 15.60852,-38.76004 0,-13.80321 -60.81826,37.68394 -94.33235,79.8593 -14.00108,17.61949 -19.20116,21.76586 -24.04562,19.17318 -8.18271,-4.37924 -0.0557,-25.21023 28.73894,-73.66315 10.33571,-17.39194 21.32969,-40.09574 23.36339,-48.24798 1.56308,-6.26579 -9.63378,-4.13275 -24.82206,4.7287 -18.26699,10.65768 -68.68451,55.7517 -82.00886,73.3497 -9.38936,12.40088 -23.05093,32.315 -30.88019,45.0133 -3.84421,6.23494 -10.570195,15.11633 -14.946634,19.73642 l -7.957147,8.40019 10.317544,9.86363 c 37.421547,35.77524 87.963997,50.38488 137.595057,39.77279 z M 80.489142,288.37402 c 3.455544,-6.05377 18.893933,-25.74622 41.767658,-53.27676 28.68704,-34.52741 41.74228,-81.08428 24.98694,-89.10709 -18.38365,-8.80248 -73.501239,15.1237 -85.246086,37.00475 -4.717743,8.78932 -6.841573,10.80887 -12.344329,11.73817 l -4.93191,0.83292 0.343547,10.37365 c 0.948456,28.63844 9.621313,55.65823 25.756351,80.2424 6.629969,10.10175 5.322109,9.80522 9.667829,2.19196 z M 308.37978,263.3421 c 13.92419,-4.07547 37.45076,-18.74693 40.96771,-25.54796 10.13294,-19.59494 5.12704,-72.24791 -9.89885,-104.11795 C 276.67666,0.53626292 77.144748,24.523825 47.926309,168.72277 c -2.381924,11.75527 -2.632671,11.7243 11.59084,1.43154 29.394531,-21.27119 71.829041,-36.34569 90.994121,-32.32491 19.88478,4.17176 21.35344,18.42192 5.63201,54.64633 -2.41992,5.5758 -3.94353,10.13782 -3.38582,10.13782 0.5577,0 1.014,-0.4341 1.014,-0.96468 0,-0.53057 5.05521,-5.37492 11.2338,-10.76521 53.1546,-46.37287 92.88434,-66.36275 92.88434,-46.73443 0,6.21288 -2.66759,11.43476 -18.16072,35.5501 -25.71475,40.0255 -39.01678,63.53098 -40.53611,71.62976 -1.11572,5.94733 -1.63352,6.35964 30.93843,-24.6354 69.06854,-65.72476 84.49261,-76.62858 92.72681,-65.5519 3.27781,4.40929 1.98097,8.28941 -9.11975,27.28628 -24.91599,42.63921 -33.72771,73.55658 -21.62627,75.87935 5.30981,1.01918 10.54997,0.70823 16.26779,-0.96532 z"
     id="path1"
     style="stroke-width:0.821986" />
</svg>
