<?xml version="1.0" encoding="UTF-8" standalone="no"?>
<!-- Created with Inkscape (http://www.inkscape.org/) -->

<svg
   width="224.46788mm"
   height="224.46788mm"
   viewBox="0 0 224.46788 224.46788"
   version="1.1"
   id="svg1"
   xmlns="http://www.w3.org/2000/svg"
   xmlns:svg="http://www.w3.org/2000/svg">
  <defs
     id="defs1" />
  <g
     id="layer1"
     transform="translate(8.9074554,-9.4164505)">
    <circle
       style="fill:#ffffff;stroke-width:0.264583"
       id="path2"
       cx="103.32648"
       cy="121.65038"
       r="103.83547" />
    <path
       style="fill:#000000;stroke-width:0.137686"
       d="m 104.70106,201.08879 c -1.25638,-0.16587 -1.99537,-0.45112 -2.48049,-0.95748 -0.3362,-0.35091 -0.40448,-0.5552 -0.4709,-1.40884 l -0.0777,-0.99839 -0.58693,0.0464 c -0.51415,0.0408 -0.6449,-0.0113 -1.05472,-0.42137 -0.592535,-0.59252 -0.719788,-1.11328 -0.829083,-3.39287 -0.04854,-1.01211 -0.186321,-2.34421 -0.306192,-2.96023 -0.296785,-1.52508 -0.288762,-3.278 0.01899,-4.14909 0.133755,-0.37864 0.573927,-1.46291 0.978159,-2.40949 0.929796,-2.17731 1.101246,-2.84962 1.439636,-5.64511 0.15125,-1.24949 0.37874,-2.81965 0.50554,-3.48923 0.2853,-1.50668 0.17647,-2.27682 -0.70812,-5.01102 -1.192098,-3.68462 -1.364724,-5.53494 -1.330946,-14.26637 0.02704,-6.99034 -0.0088,-7.3007 -1.066615,-9.1487 -0.290384,-0.50744 -0.836959,-1.45557 -1.214618,-2.10695 -0.377659,-0.65136 -0.795095,-1.45683 -0.927617,-1.7899 -0.132522,-0.33308 -0.320126,-0.79147 -0.416908,-1.01865 -0.09671,-0.22718 -0.412317,-1.03264 -0.701205,-1.7899 -0.288887,-0.75728 -0.726695,-1.81057 -0.972914,-2.34066 -0.246206,-0.53009 -0.581284,-1.3044 -0.744603,-1.72072 -0.16332,-0.41631 -0.345227,-0.81904 -0.404232,-0.89496 -0.05898,-0.076 -0.145512,-0.29292 -0.192256,-0.48224 -0.04678,-0.18931 -0.211459,-0.5492 -0.366064,-0.79973 l -0.281091,-0.45553 -0.914299,0.7589 c -0.975933,0.81007 -1.629023,1.04785 -2.574799,0.93744 -0.765775,-0.0894 -1.509286,-0.86784 -1.737496,-1.81913 -0.231254,-0.96397 -0.08487,-3.07281 0.343986,-4.95547 0.181125,-0.79513 0.648108,-3.01924 1.037745,-4.94247 l 0.708423,-3.49677 0.02415,-6.55426 0.02415,-6.55425 0.374263,-1.01562 c 0.581812,-1.57886 1.447607,-3.21475 2.844559,-5.37471 2.197266,-3.397429 2.588193,-4.396719 2.454036,-6.273008 -0.05936,-0.829464 -0.969456,-4.312199 -1.473048,-5.636753 -0.08363,-0.219961 -0.303513,-1.040924 -0.488626,-1.824386 -0.4925,-2.084311 -2.470912,-6.39143 -3.363392,-7.322266 -0.949059,-0.989853 -1.364725,-1.166541 -2.901235,-1.233217 -1.152331,-0.05005 -1.558554,0.0038 -3.373289,0.442838 -1.134759,0.274828 -2.682775,0.678129 -3.440046,0.896203 -3.032093,0.873177 -3.176802,0.888318 -7.56196,0.790769 -3.46084,-0.07696 -7.313112,-0.364253 -7.646331,-0.570192 -0.05742,-0.03546 -1.182014,-0.254292 -2.499089,-0.486225 -5.545967,-0.976649 -11.840482,-2.894924 -14.924041,-4.548155 -2.257079,-1.210116 -5.245767,-2.682296 -6.994648,-3.445436 -1.680423,-0.733273 -2.44988,-1.388702 -2.992275,-2.548805 -0.224577,-0.480339 -0.40832,-0.955522 -0.40832,-1.055964 0,-0.100479 -0.131051,-0.552221 -0.291223,-1.003963 -0.246278,-0.694578 -0.279806,-1.023204 -0.217246,-2.129345 0.122223,-2.161073 0.728609,-3.30445 1.752486,-3.30445 0.456396,0 0.527986,-0.05307 0.756929,-0.560735 0.283569,-0.628858 0.665074,-0.953799 1.119803,-0.953799 0.471416,0 0.734439,0.504056 0.734439,1.407478 0,0.874069 0.05879,0.917342 0.91333,0.672268 0.502588,-0.144142 1.464682,0.213924 1.612945,0.600286 0.215231,0.560873 0.08995,1.523978 -0.266454,2.048483 -0.311799,0.458847 -0.332026,0.552938 -0.162266,0.754802 0.106667,0.126838 0.676507,0.806816 1.266322,1.511064 1.18728,1.417639 2.064145,2.124013 3.332517,2.684584 0.920151,0.406659 3.504916,0.974461 5.144547,1.13011 1.143343,0.108528 2.595365,0.354331 4.061712,0.687573 2.074183,0.47136 5.962801,1.006353 9.087232,1.250207 0.454364,0.03546 1.095416,0.09356 1.424566,0.129202 0.67737,0.07332 2.262308,-0.132824 3.187896,-0.414518 1.123851,-0.342045 5.156438,-1.607531 5.507412,-1.72832 5.172855,-1.780157 7.259502,-2.568335 9.362599,-3.536458 4.948504,-2.277989 6.536003,-2.69872 10.18871,-2.700292 2.134614,-9.81e-4 2.502275,0.03307 3.222746,0.29842 1.139554,0.419624 1.563659,0.386336 2.441199,-0.191577 1.05409,-0.694175 1.63338,-1.640693 1.63338,-2.66884 0,-0.187276 -0.4415,-1.020035 -0.98596,-1.85966 -2.802435,-4.321819 -2.606884,-3.728098 -2.382799,-7.23445 0.155875,-2.438882 0.218251,-2.836247 0.680879,-4.337093 0.95339,-3.092899 1.82439,-4.197031 4.22729,-5.358764 0.61511,-0.297394 1.10023,-0.404781 2.27181,-0.5029 0.81931,-0.06861 1.6263,-0.156873 1.7933,-0.196121 0.41385,-0.09727 2.74844,0.271663 3.35427,0.530069 1.11133,0.474016 2.87529,2.052472 3.38794,3.031656 0.11381,0.217433 0.43385,1.177789 0.71113,2.134123 0.4969,1.713774 0.50405,1.773458 0.49746,4.14828 -0.006,2.395998 -0.0101,2.418521 -0.52156,4.019589 -0.54105,1.691939 -0.65885,1.893803 -2.52046,4.319442 -0.61661,0.80342 -1.15874,1.648968 -1.20474,1.878964 -0.12909,0.64547 -0.0977,1.910893 0.0616,2.484531 0.1726,0.621488 1.16464,2.106432 1.6447,2.461857 0.34025,0.251915 0.36268,0.248658 1.94881,-0.282801 2.53535,-0.849509 3.50717,-1.024487 5.19744,-0.935828 0.8025,0.04213 1.79545,0.180032 2.20657,0.306518 0.41111,0.126499 0.84482,0.250733 0.9638,0.276098 0.11896,0.0254 0.65002,0.196004 1.18011,0.379219 0.53008,0.183202 2.23394,0.750627 3.78634,1.260921 1.5524,0.510294 3.07038,1.023531 3.37329,1.140523 1.68264,0.649871 8.89055,2.948622 9.61358,3.065965 1.22156,0.198255 2.27375,0.172186 3.13174,-0.07759 0.87783,-0.25555 4.65347,-2.187507 8.65236,-4.427292 1.55921,-0.873327 3.82627,-2.139078 5.0379,-2.81278 1.21164,-0.673702 2.34434,-1.393381 2.51711,-1.599282 0.50069,-0.596663 1.6823,-2.720902 1.6823,-3.02434 0,-0.15214 -0.0929,-0.499064 -0.20653,-0.770924 -0.2939,-0.703406 -0.26695,-1.507266 0.0605,-1.803573 0.33266,-0.301061 1.0276,-0.309688 1.71772,-0.02138 0.28998,0.121229 0.59951,0.2203 0.68786,0.2203 0.0884,0 0.36743,-0.341252 0.62022,-0.758323 0.87703,-1.447104 1.86559,-1.951739 2.62258,-1.338765 0.41792,0.33841 0.50281,1.53082 0.22772,3.198563 l -0.21577,1.308018 0.48227,0.704022 c 0.54298,0.792655 1.03068,2.057097 1.01492,2.631402 -0.0169,0.615061 -0.30755,1.259173 -0.79172,1.754376 -0.42106,0.430641 -0.87377,0.656122 -2.98415,1.486328 -1.1884,0.467512 -3.22272,2.078816 -6.02151,4.769411 -3.84287,3.694308 -4.77539,4.356943 -8.05172,5.721375 -0.96833,0.40325 -2.07037,0.868348 -2.449,1.033541 -1.98069,0.86416 -6.20197,1.803447 -9.84451,2.190513 -2.19939,0.233718 -4.83981,0.306808 -5.71394,0.158164 -0.76148,-0.129492 -4.07121,-0.551417 -6.54005,-0.833727 -0.56795,-0.06502 -1.6247,-0.121481 -2.34832,-0.125505 -1.19723,-0.0063 -1.35837,0.02389 -1.78991,0.341064 -0.54072,0.397352 -0.64129,0.708888 -0.66527,2.061008 -0.0203,1.141365 -0.34259,3.327099 -0.61929,4.199408 -0.34445,1.085894 -1.18127,3.191597 -1.833,4.612455 -0.97959,2.13557 -0.95103,3.360412 0.16372,7.021943 0.73414,2.411399 0.75551,2.508719 1.03652,4.720089 0.21646,1.70334 0.41232,2.55692 1.02843,4.48168 0.66444,2.07578 1.33812,4.66918 1.74068,6.7009 0.86777,4.3797 1.24533,11.80069 0.75303,14.80117 -0.56901,3.46798 -1.8259,7.09374 -4.2554,12.27561 -1.28031,2.73079 -2.58079,5.16234 -3.4478,6.4465 -0.30561,0.45267 -0.81507,1.44401 -1.13211,2.20297 -0.31704,0.75897 -0.89889,2.14581 -1.29301,3.08189 l -0.71656,1.70196 -0.12324,2.49745 c -0.11884,2.40697 -0.1943,2.9018 -1.01537,6.65812 -0.52791,2.41514 -0.87403,11.41653 -0.63679,16.56096 0.25135,5.4506 0.47295,7.14867 1.04628,8.01717 0.43108,0.653 0.97714,2.28812 1.09848,3.28926 l 0.0938,0.77349 0.81597,0.0853 c 0.89291,0.0933 1.43265,0.32632 2.2185,0.95771 1.5211,1.22212 1.40452,3.75018 -0.21179,4.59302 -0.24931,0.13001 -0.89346,0.25653 -1.4847,0.29162 -1.20185,0.0713 -2.24125,-0.17429 -3.42046,-0.80822 -0.41103,-0.22096 -0.79827,-0.40173 -0.86054,-0.40173 -0.0623,0 -0.11318,0.21453 -0.11318,0.47673 0,0.2622 -0.1274,0.8172 -0.28308,1.23334 -0.32951,0.88065 -1.302,1.84686 -2.14444,2.13057 -0.67372,0.22689 -3.3973,0.31076 -4.66329,0.14365 z m -1.61128,-5.6021 c 0.21403,-0.43544 0.47139,-1.12832 0.57192,-1.53974 l 0.18278,-0.74805 -0.39781,-0.31833 c -0.46084,-0.36875 -0.95122,-0.41538 -1.07152,-0.10186 -0.17683,0.46078 0.005,3.49971 0.21002,3.49971 0.0635,0 0.2906,-0.35627 0.50461,-0.7917 z m 5.51661,-12.62368 c 1.43879,-0.30853 1.32643,0.29516 1.32874,-7.13917 0.003,-7.5614 0.19975,-10.35732 0.96941,-13.72911 0.25064,-1.09803 0.53118,-2.77737 0.62341,-3.73185 0.16392,-1.69617 0.15944,-1.76934 -0.19746,-3.23561 -0.22576,-0.92749 -0.413,-2.21511 -0.49045,-3.37293 -0.13502,-2.01812 -0.0937,-2.39967 0.60229,-5.56226 0.59234,-2.69155 0.6193,-3.06818 0.62094,-8.67417 10e-4,-5.60603 -0.0557,-6.75605 -0.34261,-6.86612 -0.0948,-0.0363 -0.52512,0.11959 -0.95629,0.34671 -2.11863,1.11576 -3.55051,1.37595 -5.44372,0.98917 -0.56795,-0.11607 -1.17253,-0.20548 -1.34349,-0.19878 -0.17097,0.006 -1.02223,0.29353 -1.89168,0.63739 -1.82885,0.72334 -3.122468,0.89658 -4.691191,0.62827 -0.524882,-0.0898 -1.124727,-0.19192 -1.332967,-0.22698 -0.297389,-0.05 -0.37864,-0.0101 -0.37864,0.18615 0,0.13742 0.502988,1.42395 1.117748,2.85893 0.61476,1.43498 1.386942,3.30288 1.715946,4.15089 0.666974,1.7191 1.551794,3.54413 2.122854,4.37863 0.56573,0.82671 1.30578,2.35878 1.66269,3.44214 0.31062,0.94287 0.31957,1.12826 0.41198,8.53648 0.11645,9.33528 0.18251,9.99403 1.3634,13.594 0.77237,2.35461 0.83848,2.66022 1.03529,4.78699 0.24247,2.62017 0.2133,2.43867 0.84072,5.23204 0.76202,3.39275 0.67185,3.16756 1.26605,3.16193 0.28093,-0.003 0.9051,-0.0894 1.38703,-0.19274 z m 6.65423,-36.49556 c 0.29627,-0.75727 1.21316,-2.73994 2.03753,-4.40593 2.7257,-5.50841 4.04087,-8.9 4.91197,-12.66705 0.4154,-1.79631 0.36306,-7.30312 -0.1079,-11.35904 -0.18833,-1.62169 -0.81178,-5.00008 -0.94951,-5.14516 -0.12999,-0.13695 -0.59267,0.71519 -0.99582,1.83409 -0.23035,0.63931 -0.29352,1.3028 -0.38735,4.06835 -0.0936,2.75743 -0.39487,5.77653 -0.6115,6.12706 -0.0292,0.0473 -0.24411,0.98049 -0.47752,2.0738 -0.62011,2.90455 -0.68525,3.15847 -0.99478,3.87801 -0.15491,0.36009 -0.52226,0.87209 -0.81633,1.13776 -0.43772,0.39544 -0.6427,0.48305 -1.13035,0.48305 h -0.59565 l -0.15027,5.33531 c -0.15814,5.61494 -0.13124,5.36812 -0.9939,9.12165 -0.37681,1.63956 -0.46623,2.29147 -0.35339,2.57633 0.1206,0.3045 0.81002,-1.00113 1.61482,-3.05823 z m -6.70436,-77.105072 c 0.81866,-0.184258 3.99563,-1.195981 4.11537,-1.310558 0.0703,-0.06728 -0.0415,-0.311511 -0.26222,-0.573009 -0.53426,-0.632957 -1.13811,-1.956631 -1.32435,-2.903061 -0.086,-0.437267 -0.20874,-0.827351 -0.27264,-0.866838 -0.0639,-0.03949 -0.52551,0.175065 -1.0258,0.476805 -1.78932,1.079191 -3.75845,0.850767 -5.21404,-0.604813 -0.26506,-0.265056 -0.54005,-0.481911 -0.61111,-0.481911 -0.071,0 -0.28444,0.263322 -0.4742,0.585157 -0.39495,0.669854 -0.89969,1.162819 -1.64958,1.611078 -0.2875,0.171871 -0.49988,0.383092 -0.47196,0.469398 0.0279,0.08627 0.28373,0.268226 0.56847,0.404282 0.45401,0.216929 1.55014,0.942959 4.35025,2.881418 0.7872,0.544965 1.06649,0.583334 2.27181,0.312052 z m -0.11104,-5.733711 c 0.83774,-0.210944 1.77379,-1.115837 3.95145,-3.819888 1.70916,-2.122303 2.38619,-3.183837 2.21119,-3.466991 -0.0672,-0.108779 -0.13524,-0.109156 -0.24304,-0.0013 -0.25028,0.250293 -0.60842,0.167809 -0.69528,-0.160113 -0.0577,-0.217772 0.0487,-0.492387 0.35794,-0.924498 0.54624,-0.763165 0.65093,-1.814438 0.32132,-3.226293 -0.53085,-2.273927 -2.02261,-3.980329 -4.51097,-5.160064 -0.57792,-0.273996 -1.1054,-0.651783 -1.41493,-1.013416 l -0.49353,-0.576571 -0.34797,0.37527 c -0.19139,0.206399 -0.73375,0.550192 -1.20526,0.763986 -0.47151,0.213792 -1.07491,0.579779 -1.34087,0.813305 -0.26597,0.233526 -0.97662,0.726381 -1.57921,1.095235 -1.44947,0.887236 -1.65639,1.26018 -1.85239,3.338555 -0.0812,0.861079 -0.10564,2.174894 -0.0544,2.919573 0.0987,1.43395 0.009,1.642919 -0.4061,0.940922 -0.28332,-0.47961 -0.6415,-0.546625 -0.6415,-0.119972 0,0.3262 0.71334,1.644931 1.03353,1.910655 0.11305,0.09381 0.20565,0.227392 0.20565,0.296697 0,0.197047 2.10776,3.387675 2.90298,4.39438 1.25579,1.589762 2.24655,2.012165 3.80138,1.620661 z m -0.94325,-2.178415 c -1.021,-0.308443 -1.59824,-0.990407 -1.22202,-1.443721 0.34297,-0.413261 1.33672,-0.665239 2.34036,-0.593432 1.15648,0.08275 1.65704,0.358846 1.65704,0.914022 0,0.484175 -0.29618,0.753294 -1.14072,1.036447 -0.71358,0.239239 -1.06752,0.258014 -1.63466,0.08665 z m 0.26028,-3.349987 c -0.64072,-0.253009 -0.34027,-0.438022 0.77078,-0.474642 1.19968,-0.03949 1.44217,0.191401 0.50732,0.483168 -0.63254,0.197425 -0.7587,0.196583 -1.2781,-0.0088 z m -3.47421,-3.596079 c -0.48712,-0.218439 -1.58339,-1.143629 -1.58339,-1.336287 0,-0.07369 0.23215,-0.230977 0.51588,-0.349528 0.64654,-0.27015 1.91657,-0.178335 2.53579,0.183303 0.53219,0.310807 0.65886,0.597028 0.26425,0.597028 -0.16318,0 -0.28683,0.08904 -0.28683,0.20653 0,0.113558 0.0929,0.20653 0.20651,0.20653 0.33363,0 0.2368,0.35506 -0.14415,0.528642 -0.45574,0.207636 -0.99301,0.194746 -1.50806,-0.03622 z m 0.58522,-0.526844 c -0.0316,-0.09469 -0.17411,-0.194746 -0.31688,-0.222413 -0.22458,-0.04351 -0.23469,-0.02037 -0.075,0.172111 0.2184,0.263145 0.47366,0.295917 0.39188,0.0503 z m 6.05809,0.573009 c -0.2576,-0.148833 -0.33233,-0.538589 -0.10325,-0.538589 0.32121,0 0.103,-0.289202 -0.27537,-0.36487 -0.51123,-0.10224 -0.51803,-0.220866 -0.0343,-0.60192 0.32454,-0.255738 0.51749,-0.29139 1.35054,-0.249602 1.05605,0.05294 1.76407,0.372252 1.62561,0.733072 -0.0747,0.194684 -1.46238,0.932182 -2.04677,1.087793 -0.15146,0.04037 -0.3838,0.01006 -0.51632,-0.0659 z m 0.86959,-0.543431 c 0.36312,-0.194344 0.33645,-0.437381 -0.042,-0.383368 -0.16962,0.02414 -0.32906,0.152416 -0.35432,0.284939 -0.0529,0.27772 0.0251,0.297112 0.39638,0.09847 z m -2.44695,-1.117647 c 0.047,-0.351301 0.20986,-0.704928 0.42207,-0.917154 0.31513,-0.31512 0.47443,-0.351124 1.81795,-0.410884 1.21459,-0.05408 1.46146,-0.03207 1.40926,0.125505 -0.0431,0.13012 -0.41059,0.220388 -1.15365,0.283379 -1.45353,0.123242 -1.77953,0.266931 -2.12019,0.93466 -0.15609,0.305965 -0.32167,0.556295 -0.36796,0.556295 -0.0463,0 -0.0497,-0.257297 -0.008,-0.571751 z m -4.42361,-1.286287 c -0.55797,-0.110665 -1.05403,-0.130736 -1.37686,-0.05571 -0.6726,0.156303 -0.84887,0.151977 -0.84887,-0.02088 0,-0.0796 0.22129,-0.237177 0.49174,-0.350182 0.40023,-0.167218 0.67568,-0.179064 1.48011,-0.06363 1.2805,0.183705 1.7836,0.328173 1.85142,0.531635 0.0682,0.204442 -0.42281,0.191778 -1.59754,-0.04125 z"
       id="path1" />
  </g>
</svg>
